<?xml version="1.0" encoding="utf-8"?>
<!-- Generator: Adobe Illustrator 25.4.1, SVG Export Plug-In . SVG Version: 6.00 Build 0)  -->
<svg version="1.1" id="Слой_1" xmlns="http://www.w3.org/2000/svg" xmlns:xlink="http://www.w3.org/1999/xlink" x="0px" y="0px"
	 viewBox="0 0 3223.1 2602.6" style="enable-background:new 0 0 3223.1 2602.6;" xml:space="preserve">
<style type="text/css">
	.st0{fill:#FFCF2D;}
	.st1{fill:#FFFFFF;stroke:#FFCF2D;stroke-width:6;stroke-linecap:round;stroke-miterlimit:10;}
	.st2{fill:none;stroke:#FFCF2D;stroke-width:6;stroke-linecap:round;stroke-miterlimit:10;}
	.st3{fill:none;stroke:#3FB1B5;stroke-width:6;stroke-linecap:round;stroke-miterlimit:10;}
	.st4{fill:#FFFFFF;stroke:#3FB1B5;stroke-width:6;stroke-linecap:round;stroke-miterlimit:10;}
	.st5{fill:#66B0F0;stroke:#66B0F0;stroke-width:6;stroke-linejoin:round;stroke-miterlimit:10;}
	.st6{fill:none;stroke:#FFFFFF;stroke-width:6;stroke-linecap:round;stroke-miterlimit:10;}
	.st7{fill:#3FB1B5;}
	.st8{fill:#FFFFFF;stroke:#3FB1B5;stroke-width:6;stroke-miterlimit:10;}
	.st9{fill:#FE5244;}
	.st10{fill:#E57281;}
	.st11{fill:none;stroke:#9A3B82;stroke-width:6;stroke-linecap:round;stroke-miterlimit:10;}
	.st12{fill:#9A3B82;}
	.st13{fill:none;stroke:#9A3B82;stroke-width:5;stroke-linecap:round;stroke-miterlimit:10;}
	.st14{fill:none;stroke:#FFFFFF;stroke-width:5;stroke-miterlimit:10;}
	.st15{fill:none;stroke:#66B0F0;stroke-width:6;stroke-linejoin:round;stroke-miterlimit:10;}
	.st16{fill:#66B0F0;}
	.st17{fill:#D0F0E4;}
	.st18{opacity:0.4;fill:#FFFFFF;enable-background:new    ;}
	.st19{fill:#A0505A;}
	.st20{fill:#73325A;}
	.st21{fill:#FFFFFF;stroke:#66B0F0;stroke-width:6;stroke-linejoin:round;stroke-miterlimit:10;}
	.st22{fill:#FFFFFF;}
	.st23{fill:none;stroke:#FFFFFF;stroke-width:6;stroke-linecap:round;stroke-linejoin:round;stroke-miterlimit:10;}
	.st24{fill:#FFFFFF;stroke:#3FB1B5;stroke-width:6;stroke-linejoin:round;stroke-miterlimit:10;}
	.st25{fill:none;stroke:#73325A;stroke-width:6;stroke-linecap:round;stroke-miterlimit:10;}
	.st26{fill:none;stroke:#FE5244;stroke-width:6;stroke-linejoin:round;stroke-miterlimit:10;}
</style>
<g id="LAMP">
	<polygon class="st0" points="2166.7,75.1 2364.6,266.1 2563.5,1342.8 697.8,1342.8 	"/>
	<g>
		<g>
			<path class="st1" d="M2366.3,264.6L2167.8,73l33.2-34.5c48.9-50.8,137-45,187.8,3.8l0,0c50.8,48.9,59.7,137,10.8,187.8
				L2366.3,264.6z"/>
			<line class="st2" x1="2399.5" y1="230.1" x2="2200.9" y2="38.5"/>
		</g>
		<path class="st3" d="M2399.7,51l22.2-17c29.8-22.8,72.6-16.8,94.9,13.5l545.6,664.2l-279.3,622.9"/>
		<circle class="st1" cx="3053.5" cy="715" r="30.6"/>
		<path class="st1" d="M2705.5,1265h149.1c42.9,0,77.6,34.8,77.6,77.6v2.2h-304.4v-2.2C2627.9,1299.8,2662.6,1265,2705.5,1265z"/>
	</g>
</g>
<g id="COMPUTER">
	<g id="COMPUTER_1_">
		<path class="st4" d="M1983.2,1117.7h-943.9c-35.5,0-64.2-28.7-64.2-64.2V393.3c0-35.5,28.7-64.2,64.2-64.2h943.9
			c35.5,0,64.2,28.7,64.2,64.2v660.1C2047.5,1088.9,2018.7,1117.7,1983.2,1117.7z"/>
		<path class="st5" d="M1983.8,1056.3H1049c-13.9,0-25.1-11.3-25.1-25.1V399.6c0-13.9,11.3-25.1,25.1-25.1h934.8
			c13.9,0,25.1,11.3,25.1,25.1v631.5C2009,1045,1997.7,1056.3,1983.8,1056.3z"/>
		<g>
			<path class="st6" d="M1082.5,433.5h-14.8c-4.8,0-8.8-3.9-8.8-8.8v-14.8c0-4.8,3.9-8.8,8.8-8.8h14.8c4.8,0,8.8,3.9,8.8,8.8v14.8
				C1091.2,429.6,1087.3,433.5,1082.5,433.5z"/>
			<path class="st6" d="M1149.8,433.5H1135c-4.8,0-8.8-3.9-8.8-8.8v-14.8c0-4.8,3.9-8.8,8.8-8.8h14.8c4.8,0,8.8,3.9,8.8,8.8v14.8
				C1158.6,429.6,1154.6,433.5,1149.8,433.5z"/>
			<path class="st6" d="M1217.1,433.5h-14.8c-4.8,0-8.8-3.9-8.8-8.8v-14.8c0-4.8,3.9-8.8,8.8-8.8h14.8c4.8,0,8.8,3.9,8.8,8.8v14.8
				C1225.9,429.6,1222,433.5,1217.1,433.5z"/>
		</g>
		<g>
			<polygon class="st4" points="1710.5,1342.8 1344.1,1342.8 1416,1117.7 1638.5,1117.7 			"/>
			<polygon class="st7" points="1372.9,1252.7 1416,1117.7 1638.5,1117.7 			"/>
		</g>
		<g>
			<path class="st6" d="M1929.4,581.6h-178.1c-16.7,0-30.2-13.5-30.2-30.2v-115c0-16.7,13.5-30.2,30.2-30.2h178.1
				c16.7,0,30.2,13.5,30.2,30.2v115C1959.6,568.1,1946.1,581.6,1929.4,581.6z"/>
			<line class="st6" x1="1772" y1="447.2" x2="1907.9" y2="447.2"/>
			<line class="st6" x1="1772" y1="478.2" x2="1907.9" y2="478.2"/>
			<line class="st6" x1="1772" y1="509.2" x2="1907.9" y2="509.2"/>
			<line class="st6" x1="1772" y1="540.2" x2="1907.9" y2="540.2"/>
		</g>
	</g>
	<g id="TEACHER">
		<g id="SHIRT">
			<path class="st8" d="M1978.6,1056.3h-707.9l-41.5,59.5c-46.9,67.2-146,68.2-194.2,1.9L782.2,770c10.6,13.2,59.1-1.5,105.3-31.9
				c46.9-30.9,77.2-69.8,67.7-84.2l175.3,223.4l53.7-94.8c14.7-25.1,39.1-43.1,67.5-49.7l182.7-38.7h157.5l173.6,38.3
				c30.2,6.9,55.8,26.6,70.3,53.9L1978.6,1056.3z"/>
			<line class="st3" x1="1784.3" y1="1052.2" x2="1734" y2="952.9"/>
			<line class="st3" x1="1266.7" y1="1061.5" x2="1316.5" y2="963.2"/>
			<line class="st3" x1="1062.3" y1="790.6" x2="1176.4" y2="936.5"/>
			<polyline class="st3" points="1532.8,742.1 1574.8,793.2 1668.8,713.4 			"/>
			<polyline class="st3" points="1500.7,743.1 1459.9,795.2 1356.6,713.4 			"/>
			<path class="st3" d="M990,698.6c9.5,14.5-20.9,53.9-68.1,85.2c-46.4,30.8-95.6,45.6-106.3,32.3"/>
			<circle class="st3" cx="958.6" cy="712.6" r="11.3"/>
			<circle class="st3" cx="1516.6" cy="783.6" r="11.3"/>
			<circle class="st3" cx="1516.6" cy="874.6" r="11.3"/>
			<polygon class="st7" points="1225.6,1120.6 1270.7,1056.3 1270.7,1120.6 			"/>
		</g>
		<g id="ARM">
			<path class="st9" d="M886.4,735.1c-46.2,30.4-94.7,45.1-105.3,31.9c-0.2-0.2-0.3-0.4-0.5-0.7c-2.2-3.3-2-7.8,0-13.3
				c6.9-18.1,35.4-46.1,71.6-69.9c28.8-19,57.2-32.2,76.9-36.3c11.4-2.3,19.9-1.6,24,2.8l0,0l1,1.2l0,0
				C963.5,665.2,933.3,704.2,886.4,735.1z"/>
			<path class="st10" d="M886.4,735.1c-26.3,17.3-53.4,29.6-73.8,34.4l0,0l-91.3-128.8c-12.7-18-8.5-42.9,9.6-55.6l82.2-57.8
				L766.5,448c-6.8-11.5-2.9-26.4,8.7-33.1c3.8-2.2,7.9-3.2,12-3.2c7.9,0,15.7,3.9,20.3,11.1l145.7,226.6l1,1.6l0,0
				C963.5,665.2,933.3,704.2,886.4,735.1z"/>
			<path class="st11" d="M812.9,528.2l50.9,78.9c4.7,7.4,2.6,17.2-4.8,22l-11.3,7.4c-7.4,4.9-17.4,2.8-22.2-4.6l-48.1-72"/>
			<path class="st11" d="M825.3,631.7c4.9,7.5,2.7,17.6-4.8,22.4l-10.3,6.5c-7.4,4.7-17.2,2.6-22-4.7"/>
			<path class="st11" d="M740.9,585.3l47.1,70c4.9,7.5,2.8,17.6-4.9,22.4l-9.6,5.3c-7.2,4.6-16.7,2.7-21.7-4.3l-27.3-38.5"/>
			<path class="st10" d="M919.2,596.6l-23.9-37.1c-7.9-12.3-24.4-15.7-36.5-7.5l-59.3,40.2c0,0,17.2,30.9,59,6.4l14,22.3l0,0
				c-28.6,18.1-36.8,56.2-18.2,84.5L919.2,596.6z"/>
			<path class="st11" d="M916.1,597.6l-23.9-37.1c-7.9-12.3-24.4-15.7-36.5-7.5l-56.2,39.2c0,0,17.2,30.9,59,6.4l14,22.3l0,0
				c-28.6,18.1-36.8,56.2-18.2,84.5"/>
			<path class="st12" d="M886.4,735.1c-26.3,17.3-53.4,29.6-73.8,34.4l0,0l-22.7-32c12.7-16.6,35.4-36.6,62.3-54.3
				c28.8-19,57.2-32.2,76.9-36.3c11.4-2.3,19.9-1.6,24,2.8l0,0l1,1.2l0,0c0.1,0.2,0.2,0.3,0.3,0.5c0.1,0.1,0.1,0.2,0.2,0.4
				c0.1,0.2,0.2,0.3,0.3,0.5C961.7,667.6,931.8,705.1,886.4,735.1z"/>
		</g>
		<g id="HEAD_2_">
			<g>
				<path class="st10" d="M1591.8,606.1V694c0,25.5-35.4,46.1-78.9,46.1c-43.6,0-78.9-20.6-78.9-46.1v-87.9H1591.8z"/>
				<path class="st12" d="M1457.1,726.6c-14.3-8.3-23.2-19.9-23.2-32.6v-87.9h157.9v24.4c0,25.3-15.4,48-38.8,57.5L1457.1,726.6z"/>
			</g>
			<path class="st10" d="M1635.8,600.9v1.5c0,15.2-12.3,27.5-27.5,27.5h-18.1c-6.1,24.6-28.3,42.9-54.9,42.9h-44.8
				c-26.5,0-48.8-18.2-54.8-42.9h-18.1c-15.2,0-27.5-12.3-27.5-27.5v-1.5c0-15.2,12.3-27.5,27.5-27.5h16.4v-21.7
				c0-23.2,17.1-42.4,39.4-45.6c4.9,8.2,19.7,27.8,49.9,26.7c14.2-0.5,27.4-3.2,38.3-6.4c13.1-3.8,26.2,4.2,29.5,16.7
				c0.5,2.8,0.8,5.6,0.8,8.5v21.7h16.4C1623.4,573.3,1635.8,585.7,1635.8,600.9z"/>
			<path class="st12" d="M1604.4,573.3h-12.6v-24.1c0-2.1-0.3-4.2-0.8-6.1c-3.3-12.5-16.4-20.5-29.5-16.7c-10.9,3.2-24,5.9-38.3,6.4
				c-30.2,1.1-45-18.5-49.9-26.7c-22.3,3.2-39.4,22.4-39.4,45.6v21.7h-15.7c0,0-18-65.1-4.5-83.5c13.3-18.1,29.3-10.2,29.3-10.2
				s-9.6-54.2,44-53.2c53.5,1,123.1,63.1,128.2,74.5C1623.2,518.5,1604.4,573.3,1604.4,573.3z"/>
			<g>
				<g>
					<path class="st13" d="M1597.9,606c0-10.7,8.7-19.3,19.3-19.3"/>
					<path class="st13" d="M1428.1,606c0-10.7-8.7-19.3-19.3-19.3"/>
				</g>
				<g>
					<path class="st13" d="M1566.6,551.7c0,0-14.2-10.4-32.3-2.9"/>
					<path class="st13" d="M1458.2,551.7c0,0,14.2-10.4,32.3-2.9"/>
					<path class="st13" d="M1537.8,625.5c0,0-7.7,16.6-31.3,7.9"/>
					<path class="st13" d="M1505.4,616.9c6.1,0.4,15.4,0,15.4,0"/>
					<ellipse class="st12" cx="1550.5" cy="585" rx="5" ry="8.4"/>
					<ellipse class="st12" cx="1478.8" cy="585" rx="5" ry="8.4"/>
				</g>
			</g>
			<g>
				<path class="st14" d="M1490.7,613.3h-31.5c-6.1,0-11-4.9-11-11v-31.5c0-6.1,4.9-11,11-11h31.5c6.1,0,11,4.9,11,11v31.5
					C1501.8,608.3,1496.8,613.3,1490.7,613.3z"/>
				<path class="st14" d="M1567.8,613.3h-31.5c-6.1,0-11-4.9-11-11v-31.5c0-6.1,4.9-11,11-11h31.5c6.1,0,11,4.9,11,11v31.5
					C1578.8,608.3,1573.9,613.3,1567.8,613.3z"/>
				<line class="st14" x1="1501.8" y1="580.6" x2="1525.3" y2="580.6"/>
			</g>
		</g>
	</g>
	<g id="ICON">
		<path class="st15" d="M1576.1,1017.5h-109.3c-9.9,0-18-8-18-18v-58.1c0-9.9,8-18,18-18h109.3c9.9,0,18,8,18,18v58.1
			C1594.1,1009.4,1586.1,1017.5,1576.1,1017.5z"/>
		<g>
			<path class="st16" d="M1524.2,994.1h-37c-5.9,0-10.7-4.8-10.7-10.7v-25.9c0-5.9,4.8-10.7,10.7-10.7h37c5.9,0,10.7,4.8,10.7,10.7
				v25.9C1534.9,989.3,1530.1,994.1,1524.2,994.1z"/>
			<path class="st16" d="M1560.2,993.4l-11.4-7.6c-3.1-2.1-5-5.7-5-9.6v-11.4c0-3.9,1.9-7.5,5-9.6l11.4-7.6c2.7-1.8,6.2,0.2,6.2,3.6
				v38.7C1566.5,993.2,1562.9,995.2,1560.2,993.4z"/>
		</g>
	</g>
</g>
<g id="TABLE">
	<line class="st3" x1="3037.9" y1="1344.8" x2="383.2" y2="1344.8"/>
	<g>
		<path class="st4" d="M1237.9,1362.3v1234.6h-69.7v-235c0-21.9-17.8-39.7-39.7-39.7H629.6c-21.9,0-39.7,17.8-39.7,39.7v235h-69.7
			V1362.3H1237.9z"/>
		<polygon class="st17" points="1240,1362.3 1240,1689.9 520.2,2282.6 520.3,1362.3 		"/>
		<path class="st3" d="M1168.2,1456.3v223.9c0,20.8-16.8,37.6-37.6,37.6h-503c-20.8,0-37.6-16.8-37.6-37.6v-223.9
			c0-20.8,16.8-37.6,37.6-37.6h503C1151.4,1418.7,1168.2,1435.5,1168.2,1456.3z"/>
		<polygon class="st0" points="1007,1887.4 759.4,1887.4 749.1,1816.5 996.8,1816.5 		"/>
		<g>
			<path class="st4" d="M1139.1,1775.6c-30.9,0-55.9,25-55.9,55.9v55.9H872.5v-55.9c0-30.9,25-55.9,55.9-55.9H1139.1z"/>
			<path class="st4" d="M1191.6,1816.5H980.9c-6.5-23.6-28.2-40.9-53.9-40.9h210.7C1163.4,1775.6,1185,1792.9,1191.6,1816.5z"/>
		</g>
		<path class="st3" d="M1168.2,1925v223.9c0,20.8-16.8,37.6-37.6,37.6h-503c-20.8,0-37.6-16.8-37.6-37.6V1925
			c0-20.8,16.8-37.6,37.6-37.6h503C1151.4,1887.4,1168.2,1904.2,1168.2,1925z"/>
		<path class="st3" d="M776.1,1563.8c0-17.8,14.4-32.3,32.3-32.3h141.5c17.8,0,32.3,14.4,32.3,32.3"/>
		<path class="st3" d="M776.1,2032.5c0-17.8,14.4-32.3,32.3-32.3h141.5c17.8,0,32.3,14.4,32.3,32.3"/>
	</g>
	<rect x="2857.9" y="1362.3" class="st4" width="74.3" height="1237.3"/>
	<line class="st3" x1="1669.5" y1="2599.6" x2="3220.1" y2="2599.6"/>
</g>
<g id="PLANT">
	<path class="st4" d="M731.2,1175.1h-44.9c0,0-64.1-267.1-120.4-275.8s-59.2,94.1-59.2,94.1s1-156.3,141.7-134.9
		C789.2,879.9,731.2,1175.1,731.2,1175.1z"/>
	<path class="st3" d="M577.4,865.3c0,0,128.3-47.4,134.1,305.8"/>
	<rect x="642.6" y="1171.1" class="st9" width="210.9" height="171.7"/>
	<path class="st4" d="M897.9,1257c-13.4,5.8-29.4,5.1-44.3-1.4c-11-4.8-21.4-12.7-29.8-23.5c-11.6-15-19.4-35.5-19.4-61l0,0
		c0-61.8-49.2-100.6-69.4-18.8c-1.4,5.7-2.7,11.9-3.8,18.8v-0.2v-0.4l0,0c0-0.2,0-0.5,0.1-0.8v-0.4c0.4-5.1,1.9-20.2,6.5-38.4
		c3.4-13.5,8.5-28.5,16.1-42.4c3.8-6.9,8.2-13.5,13.4-19.4c13.4-15.4,31.8-26.2,56.9-26.2c46.2,0,80,54.4,92.9,108.6
		C928.4,1198.6,923.8,1245.7,897.9,1257z"/>
	<path class="st3" d="M767.4,1069.1c0,0,92.6-65.9,119.8,189.8"/>
	<path class="st7" d="M503.7,993.4c0,16.5-1.9,79.6,58.3,82.5s66.2-88,66.2-88s-29.6-80.4-62.3-88.6
		C510.6,885.4,503.7,993.4,503.7,993.4z"/>
	<path class="st7" d="M804.4,1171.1h-73.2C748.1,1065.2,804.4,1105,804.4,1171.1z"/>
</g>
<g id="LIGHT">
	<path class="st18" d="M2047.5,393.3v660.1c0,35.5-28.8,64.2-64.2,64.2h-755.5c-47.4,65.3-145.1,65.6-192.9,0l-0.1-0.1
		c-19-1.3-35.8-11-46.6-25.3l17.4-15l444-383.2l422.8-364.9h110.9C2018.7,329.1,2047.5,357.9,2047.5,393.3z"/>
	<path class="st18" d="M897.9,1260c-13.3,6-29.4,5.1-44.3-1.4v84.2H697.9l126-108.7l29.8-25.7l22.7-19.6l43.9-37.3
		C933.1,1206.1,926,1247.1,897.9,1260z"/>
</g>
<g id="TRIANGLE">
	<g>
		<g>
			<path class="st0" d="M78.4,423.1c-1.2,0-2.4-0.8-2.8-2c-0.5-1.6,0.3-3.3,1.8-3.8l9.4-3.3c1.6-0.5,3.3,0.3,3.8,1.8
				c0.5,1.6-0.3,3.3-1.8,3.8l-9.4,3.3C79,423,78.7,423.1,78.4,423.1z M102,414.9c-1.2,0-2.4-0.8-2.8-2c-0.5-1.6,0.3-3.3,1.8-3.8
				l9.4-3.3c1.6-0.5,3.3,0.3,3.8,1.8c0.5,1.6-0.3,3.3-1.8,3.8l-9.4,3.3C102.7,414.8,102.3,414.9,102,414.9z M125.6,406.6
				c-1.2,0-2.4-0.8-2.8-2c-0.5-1.6,0.3-3.3,1.8-3.8l9.4-3.3c1.6-0.5,3.3,0.3,3.8,1.8c0.5,1.6-0.3,3.3-1.8,3.8l-9.4,3.3
				C126.3,406.6,125.9,406.6,125.6,406.6z M149.2,398.4c-1.2,0-2.4-0.8-2.8-2c-0.5-1.6,0.3-3.3,1.8-3.8l9.4-3.3
				c1.6-0.5,3.3,0.3,3.8,1.8c0.5,1.6-0.3,3.3-1.8,3.8l-9.4,3.3C149.9,398.4,149.6,398.4,149.2,398.4z M172.8,390.2
				c-1.2,0-2.4-0.8-2.8-2c-0.5-1.6,0.3-3.3,1.8-3.8l9.4-3.3c1.6-0.5,3.3,0.3,3.8,1.8c0.5,1.6-0.3,3.3-1.8,3.8l-9.4,3.3
				C173.5,390.2,173.2,390.2,172.8,390.2z M196.5,382c-1.2,0-2.4-0.8-2.8-2c-0.5-1.6,0.3-3.3,1.8-3.8l9.4-3.3
				c1.6-0.5,3.3,0.3,3.8,1.8c0.5,1.6-0.3,3.3-1.8,3.8l-9.4,3.3C197.1,382,196.8,382,196.5,382z M220.1,373.8c-1.2,0-2.4-0.8-2.8-2
				c-0.5-1.6,0.3-3.3,1.8-3.8l9.4-3.3c1.6-0.5,3.3,0.3,3.8,1.8c0.5,1.6-0.3,3.3-1.8,3.8l-9.4,3.3
				C220.7,373.7,220.4,373.8,220.1,373.8z M243.7,365.6c-1.2,0-2.4-0.8-2.8-2c-0.5-1.6,0.3-3.3,1.8-3.8l9.4-3.3
				c1.6-0.5,3.3,0.3,3.8,1.8c0.5,1.6-0.3,3.3-1.8,3.8l-9.4,3.3C244.3,365.5,244,365.6,243.7,365.6z M267.3,357.4
				c-1.2,0-2.4-0.8-2.8-2c-0.5-1.6,0.3-3.3,1.8-3.8l9.4-3.3c1.6-0.5,3.3,0.3,3.8,1.8c0.5,1.6-0.3,3.3-1.8,3.8l-9.4,3.3
				C268,357.3,267.6,357.4,267.3,357.4z M290.9,349.2c-1.2,0-2.4-0.8-2.8-2c-0.5-1.6,0.3-3.3,1.8-3.8l9.4-3.3
				c1.6-0.5,3.3,0.3,3.8,1.8c0.5,1.6-0.3,3.3-1.8,3.8l-9.4,3.3C291.6,349.1,291.2,349.2,290.9,349.2z M314.5,341
				c-1.2,0-2.4-0.8-2.8-2c-0.5-1.6,0.3-3.3,1.8-3.8l9.4-3.3c1.6-0.5,3.3,0.3,3.8,1.8c0.5,1.6-0.3,3.3-1.8,3.8l-9.4,3.3
				C315.2,340.9,314.8,341,314.5,341z M338.1,332.7c-1.2,0-2.4-0.8-2.8-2c-0.5-1.6,0.3-3.3,1.8-3.8l9.4-3.3c1.6-0.5,3.3,0.3,3.8,1.8
				c0.5,1.6-0.3,3.3-1.8,3.8l-9.4,3.3C338.8,332.7,338.5,332.7,338.1,332.7z M361.7,324.5c-1.2,0-2.4-0.8-2.8-2
				c-0.5-1.6,0.3-3.3,1.8-3.8l9.4-3.3c1.6-0.5,3.3,0.3,3.8,1.8c0.5,1.6-0.3,3.3-1.8,3.8l-9.4,3.3
				C362.4,324.5,362.1,324.5,361.7,324.5z M385.4,316.3c-1.2,0-2.4-0.8-2.8-2c-0.5-1.6,0.3-3.3,1.8-3.8l9.4-3.3
				c1.6-0.5,3.3,0.3,3.8,1.8c0.5,1.6-0.3,3.3-1.8,3.8l-9.4,3.3C386,316.3,385.7,316.3,385.4,316.3z M409,308.1c-1.2,0-2.4-0.8-2.8-2
				c-0.5-1.6,0.3-3.3,1.8-3.8l9.4-3.3c1.6-0.5,3.3,0.3,3.8,1.8c0.5,1.6-0.3,3.3-1.8,3.8l-9.4,3.3C409.6,308.1,409.3,308.1,409,308.1
				z M432.6,299.9c-1.2,0-2.4-0.8-2.8-2c-0.5-1.6,0.3-3.3,1.8-3.8l9.4-3.3c1.6-0.5,3.3,0.3,3.8,1.8c0.5,1.6-0.3,3.3-1.8,3.8
				l-9.4,3.3C433.2,299.9,432.9,299.9,432.6,299.9z M456.2,291.7c-1.2,0-2.4-0.8-2.8-2c-0.5-1.6,0.3-3.3,1.8-3.8l9.4-3.3
				c1.6-0.5,3.3,0.3,3.8,1.8c0.5,1.6-0.3,3.3-1.8,3.8l-9.4,3.3C456.9,291.6,456.5,291.7,456.2,291.7z M479.8,283.5
				c-1.2,0-2.4-0.8-2.8-2c-0.5-1.6,0.3-3.3,1.8-3.8l9.4-3.3c1.6-0.5,3.3,0.3,3.8,1.8c0.5,1.6-0.3,3.3-1.8,3.8l-9.4,3.3
				C480.5,283.4,480.1,283.5,479.8,283.5z"/>
		</g>
		<g>
			<path class="st7" d="M184.8,423.1c-1.7,0-3-1.3-3-3c0-27.1-8.4-46.8-25.1-58.4c-12.5-8.7-25.2-9.5-25.3-9.5
				c-1.7-0.1-2.9-1.5-2.8-3.2c0.1-1.7,1.5-2.9,3.1-2.8c0.6,0,14.3,0.8,28.2,10.4c23.1,16,27.9,43.4,27.9,63.5
				C187.8,421.7,186.5,423.1,184.8,423.1z"/>
		</g>
		<g>
			<path class="st7" d="M662.6,423.1H78.4c-1.1,0-2.2-0.6-2.7-1.7c-0.5-1-0.4-2.2,0.3-3.1l237.4-316.5c0.5-0.7,1.3-1.1,2.1-1.2
				c0.8-0.1,1.7,0.2,2.3,0.8l346.9,316.5c0.9,0.8,1.2,2.1,0.8,3.3C665,422.3,663.9,423.1,662.6,423.1z M84.4,417.1h570.5L316.2,108
				L84.4,417.1z"/>
		</g>
	</g>
	<g>
		<g>
			<path class="st0" d="M25.9,443.9C11.6,443.9,0,432.3,0,418c0-14.3,11.6-25.9,25.9-25.9c14.3,0,25.9,11.6,25.9,25.9
				C51.8,432.3,40.2,443.9,25.9,443.9z M25.9,398c-11,0-19.9,8.9-19.9,19.9s8.9,19.9,19.9,19.9s19.9-8.9,19.9-19.9
				S36.9,398,25.9,398z"/>
		</g>
		<g>
			<rect x="45.8" y="418" class="st0" width="6" height="22.9"/>
		</g>
	</g>
	<g>
		<g>
			<path class="st0" d="M333.5,82.1c-14.3,0-25.9-11.6-25.9-25.9c0-14.3,11.6-25.9,25.9-25.9s25.9,11.6,25.9,25.9
				C359.4,70.4,347.8,82.1,333.5,82.1z M333.5,36.2c-11,0-19.9,8.9-19.9,19.9s8.9,20,19.9,20s19.9-8.9,19.9-19.9
				S344.5,36.2,333.5,36.2z"/>
		</g>
		<g>
			<rect x="307.4" y="16.1" class="st0" width="6" height="62.9"/>
		</g>
	</g>
	<g>
		<path class="st0" d="M709.3,443.3c-14.3,0-25.9-11.6-25.9-25.9c0-14.3,11.6-25.9,25.9-25.9v6c-11,0-19.9,8.9-19.9,19.9
			s8.9,19.9,19.9,19.9V443.3z"/>
	</g>
</g>
<g id="GIRL">
	<g id="GIRL_1_">
		<g id="LEGS">
			<g id="RIGHT_LEG">
				<polygon class="st19" points="2223.8,1704.3 2223.8,2260.9 2095.2,2260.9 2013.3,2032.2 1896,1704.3 				"/>
				<polygon class="st20" points="1896,1704.3 2223.8,1704.3 2223.8,1883 1935,1813.2 				"/>
				<g>
					<path class="st6" d="M2223.8,2032.2v228.7h-128.6l-81.9-228.7C2013.3,2032.2,2079.6,2068.8,2223.8,2032.2z"/>
					<circle class="st6" cx="2080.2" cy="2071.3" r="14.6"/>
					<circle class="st6" cx="2149.8" cy="2118.4" r="14.6"/>
					<circle class="st6" cx="2201.6" cy="2066.1" r="14.6"/>
					<circle class="st6" cx="2181.1" cy="2173.2" r="14.6"/>
					<circle class="st6" cx="2094.8" cy="2146.6" r="14.6"/>
					<circle class="st6" cx="2118.6" cy="2226.6" r="14.6"/>
				</g>
				<g>
					<path class="st16" d="M2284.6,2364.7l-88.2,183.1c-12.5,29.5-41.4,48.7-73.5,48.7h-112.5c-28.8,0-46.3-29.2-35.3-55.8
						l113.1-272.8c6.3-16.6,17.4-30.4,31.3-40.1c14-9.7,30.8-15.2,48.5-15.2c24.6,0,49,16.7,65.2,35.2l39.2,42.3
						C2290.5,2310.7,2295.2,2339.6,2284.6,2364.7z"/>
					<path class="st21" d="M2284.6,2364.7l-88.2,183.1c-12.5,29.5-41.4,48.7-73.5,48.7h-119.6c-11.1,0-17.4-6.9-21.1-16.4h26.6
						c32.1,0,61-19.2,73.5-48.7l101.7-212.1c9.5-19.8,29.6-32.5,51.6-32.5c28.7,0,50.5,21,54.5,47.6
						C2290.5,2344.6,2288.7,2354.9,2284.6,2364.7z"/>
					<g>
						<path class="st22" d="M2264.3,2281.3c-10.6-5.8-23.4-10-34.6-10c-21.5,0-41.4,12.5-50.7,31.9l-105.3,219.6
							c-13.4,31.7-44.4,52.2-78.9,52.2h-19.4c-1-1.9-1.7-3.9-2.4-6h21.8c32.1,0,60.9-19.1,73.4-48.6l0.1-0.1l105.4-219.7
							c10.3-21.5,32.3-35.3,56.1-35.3c7.6,0,16.7,2.5,24.5,5.2L2264.3,2281.3z"/>
					</g>
				</g>
			</g>
			<g id="LEFT_LEG">
				<path class="st19" d="M1896,1704.3l-25.1,327.9l-11.2,146.9c0,0-73.1,81.4-156.3,31.2l-38.5-178l-88.1-407.3
					c-23.8-110.1,51.4-217.2,163.1-232.1L1896,1704.3z"/>
				<g>
					<path class="st6" d="M1870.9,2032.2l-11.2,150.9c0,0-73.1,81.4-156.3,31.2l-38.5-182
						C1761.6,2061.3,1870.9,2032.2,1870.9,2032.2z"/>
					<circle class="st6" cx="1756" cy="2108.3" r="14.6"/>
					<circle class="st6" cx="1848.8" cy="2085.9" r="14.6"/>
					<circle class="st6" cx="1700" cy="2066.1" r="14.6"/>
					<circle class="st6" cx="1741.4" cy="2187.8" r="14.6"/>
					<circle class="st6" cx="1809.5" cy="2158.6" r="14.6"/>
				</g>
				<g>
					<path class="st16" d="M1956.1,2214.1l-96.4,385.5h-30.4c-1.4,0-2.7-0.1-4.1-0.2c-23-2.1-42.4-21.5-47.3-44.4l-74.6-344.9
						c83.2,50.3,156.4-31.1,156.4-31.1L1956.1,2214.1z"/>
					<path class="st21" d="M1961,2411.9c20.3-107.2,25.9-189.1-9.1-195.7c-35-6.6-97.3,64.5-117.6,171.7s-9.7,202,25.3,208.6
						C1894.6,2603.2,1940.7,2519.2,1961,2411.9z"/>
					<g>
						<path class="st22" d="M1820.3,2386.2c-10.5,55.6-13.6,109.3-8.6,151.3c3.6,30.2,11.2,51.7,21.6,62.1h-4
							c-1.4,0-2.7-0.1-4.1-0.2c-9.4-12.4-16.1-33.2-19.5-61.2c-5.1-42.5-2-96.9,8.7-153.1c10.1-53.2,30.5-103.1,57.6-140.6
							c16.2-22.4,33.2-38.1,48.7-45.2l9,3C1894,2212.9,1839.8,2283.3,1820.3,2386.2z"/>
					</g>
				</g>
			</g>
		</g>
		<g id="SKIRT">
			<path class="st9" d="M1739.9,1392.8l456.2-47l456,127.9l-3.9,60.6c-6.2,95.6-88.6,170-184.4,170h-567.7L1739.9,1392.8z"/>
			<g>
				<path class="st23" d="M2626.1,1469.3c0,86.8-86.6,193-182.4,193H1876"/>
				<path class="st23" d="M2572,1452c-14.2,77.5-90,160.3-173,160.3h-546"/>
				<path class="st23" d="M2510.5,1433.6c-24,65.8-89.1,127.7-159.6,127.7H1824"/>
				<path class="st23" d="M2463.2,1420.7c-31.5,47.9-83.2,85.6-138.3,85.6H1798"/>
				<path class="st23" d="M2410.4,1405.9c-30.3,30.5-69.5,50.4-110.5,50.4H1773"/>
				<path class="st23" d="M2341.7,1386c-21.4,12.1-44.8,19.3-68.8,19.3H1746"/>
				<line class="st23" x1="1895" y1="1704.3" x2="1738.9" y2="1392.8"/>
			</g>
		</g>
		<g id="HANDS">
			<g id="RIGHT_HAND">
				<path class="st24" d="M2677.1,1056.3c-43,12.2-85.3,8.6-89.8-4.5c-4.2-12.5,14.8-33.9,53.3-48.1c1.9-0.7,3.9-1.4,5.9-2.1
					c11.6-3.9,23.2-6.4,34.1-7.7c32.3-4.1,58.6,1.7,61.9,11.5C2747,1018.5,2722.6,1043.4,2677.1,1056.3z"/>
				<path class="st19" d="M2649.9,1347.9h-16.5l-43.3-292.3v-0.2l-1.1-7.3c2.1-13.3,22.9-32.1,59.6-44.3c18.3-6.1,36.5-8.8,52-9.1
					l15.8,43.3l1.5,4.1l50,137.1C2797.9,1261.1,2737.2,1347.9,2649.9,1347.9z"/>
				<path class="st20" d="M2717.4,1041.1c-10.5,6.6-24.1,12.7-40.3,17.3c-37.2,10.5-74.9,6.2-87-2.8v-0.2l-1.1-7.3
					c2.1-13.3,22.9-32.1,59.6-44.3c18.3-6.1,36.5-8.8,52-9.1L2717.4,1041.1z"/>
			</g>
			<g id="LEFT_HAND">
				<path class="st19" d="M2114.3,1107.4l-52.5,130.6c-25.9,64.5-88.5,106.8-158.1,106.8H1198v-64.6c0-15.6,9.6-29.6,24.2-35.1
					l72.5-27.5c6.6-2.5,13.5-3.8,20.5-3.8h82.3l465.8-47l80.4-184.1L2114.3,1107.4z"/>
				<path class="st25" d="M1274,1257.3l-54.7,20.7c-11,4.2-18.3,14.7-18.3,26.5"/>
				<path class="st25" d="M1274,1290.3l-54.7,20.7c-11,4.2-18.3,14.7-18.3,26.5"/>
				<line class="st25" x1="1274" y1="1322.1" x2="1219.3" y2="1341.8"/>
				<path class="st9" d="M1268.3,1228.7c0,0,51.2-130.7,67.6-128.5c16.4,2.2-45.4,120.1-45.4,120.1L1268.3,1228.7z"/>
				<polygon class="st20" points="1943.7,982.8 1931.9,1009.7 2083,1185.2 2114.3,1107.4 				"/>
			</g>
		</g>
		<g id="T-SHIRT">
			<path class="st7" d="M2590.1,1055.7l62,418l-455.9-127.9l-81.9-238.5l-211.4-154.5l74.2-88.4c66.2-78.9,163.9-124.5,266.9-124.5
				h146.5c127.4,0,244.7,69.6,305.8,181.4l47.5,82.2c0,0-14.3-21-91.4,0.1C2584.5,1022.3,2590.1,1055.7,2590.1,1055.7z"/>
			<line class="st23" x1="2114.3" y1="1105.4" x2="2138" y2="1002.6"/>
			<line class="st23" x1="2640.6" y1="1376.1" x2="2563.5" y2="896.8"/>
			<line class="st23" x1="2196.1" y1="1343.9" x2="2651.1" y2="1473.7"/>
		</g>
		<g id="HEAD">
			<polygon id="NECK" class="st19" points="2220.7,673.1 2220.7,740.3 2339.3,739.3 2339.3,620.7 			"/>
			<g id="HEAD_1_">
				<path class="st19" d="M2348.9,600v1.8c0,18-13.6,32.6-31.6,32.6h-7c-4.5,17.8-44.5,38.6-72.9,38.6h-33.1
					c-36.2,0-63.9-32.5-58-68.3l1.6-9.7l-9.8-5.5c-5.6-3.2-7.2-10.5-3.3-15.7l21.2-28l4.6-27.6c3.7-22.7,18.6-41.2,38.4-50.3
					c7.8,87.9,85.4,98.3,105.9,99.5h11.4C2334.3,567.4,2348.9,582,2348.9,600z"/>
				<path class="st25" d="M2296.4,608.6c0-14.2,11.5-25.7,25.7-25.7"/>
				<ellipse class="st20" cx="2188" cy="556.5" rx="5.1" ry="11.8"/>
				<path class="st25" d="M2180.2,520c0,0,14.1-1.4,28.6,18.6"/>
			</g>
			<g id="HAIR">
				<path class="st20" d="M2304.9,567.4h11.4c18,0,32.6,14.6,32.6,32.6v1.8c0,18-13.6,32.6-31.6,32.6l-7.7,5.4
					c-32.4,20.8-77.2,102.6-66.2,160.5c12.4,65.1,69.1,79.6,121.5,69.6s90.6-40.5,78.2-105.7c-1.4-7.7-3.7-15.4-6.6-23
					c0.9,0.3,1.7,0.6,2.6,0.9c63,17.2,137,19.2,157.4-30s15.8-97.9-45.5-123.3c-35.6-14.8-84-14.7-121.5-4.5
					c18.9-65.7-14.7-138.8-76.4-146.1c-96.9-11.5-152.5,28.5-154,29.6l0,0C2199,479.4,2206.9,561.7,2304.9,567.4z"/>
				<path class="st23" d="M2432,582c-7.9,25.7-24.2,53.2-50.7,71.9c0,0,46.8,30.9,57.8,88.3"/>
				<g>
					<g>
						<path class="st26" d="M2459.2,579.8h-26.5v-26.5c0-13.9,11.2-25.1,25.1-25.1h1.4c13.9,0,25.1,11.2,25.1,25.1v1.4
							C2484.4,568.5,2473.1,579.8,2459.2,579.8z"/>
						<path class="st26" d="M2449.5,607l-17-27l27-17c13.5-8.5,31.4-4.5,39.9,9l1.6,2.5c8.5,13.5,4.5,31.4-9,39.9l-2.5,1.6
							C2475.8,624.5,2458,620.5,2449.5,607z"/>
					</g>
					<g>
						<path class="st26" d="M2292.9,655.2l18.9-18.1l18.5,20.9c9.1,10.5,7.9,26.4-2.6,35.4l-1.1,0.9c-10.5,9.1-26.4,7.9-35.4-2.6
							l-0.9-1.1C2281.2,680.2,2282.4,664.3,2292.9,655.2z"/>
						<path class="st26" d="M2320.5,668.2l-8.5-30.7l30.7-8.5c15.4-4.3,31.3,4.7,35.6,20.1l0.8,2.9c4.3,15.4-4.7,31.3-20.1,35.6
							l-2.9,0.8C2340.7,692.6,2324.8,683.5,2320.5,668.2z"/>
					</g>
				</g>
			</g>
		</g>
	</g>
	<g id="CHAIR">
		<line class="st2" x1="2047.6" y1="1781.2" x2="1873.4" y2="2596.5"/>
		<line class="st2" x1="2493.4" y1="1781.2" x2="2667.6" y2="2596.5"/>
		<line class="st2" x1="1912" y1="2415.5" x2="2626.6" y2="2415.5"/>
		<path class="st21" d="M2630.5,1781.2h-720.1c-9.1,0-16.5-7.4-16.5-16.5v-43.9c0-9.1,7.4-16.5,16.5-16.5h720.1
			c9.1,0,16.5,7.4,16.5,16.5v43.9C2647,1773.8,2639.6,1781.2,2630.5,1781.2z"/>
	</g>
</g>
</svg>
